<?xml version="1.0" encoding="utf-8"?>
<!-- Generator: Adobe Illustrator 16.0.0, SVG Export Plug-In . SVG Version: 6.00 Build 0)  -->
<!DOCTYPE svg PUBLIC "-//W3C//DTD SVG 1.1//EN" "http://www.w3.org/Graphics/SVG/1.1/DTD/svg11.dtd">
<svg version="1.1" xmlns="http://www.w3.org/2000/svg" xmlns:xlink="http://www.w3.org/1999/xlink" x="0px" y="0px" width="50px"
	 height="50px" viewBox="0 0 50 50" enable-background="new 0 0 50 50" xml:space="preserve">
<g id="bg">
	<rect x="64.5" y="-25" fill="#54FFC5" width="50" height="50"/>
</g>
<g id="Layer_1">
	<path fill="#146D00" d="M82.047,22.006v-9.098c-2.355,0.553-4.681,1.075-7.063,1.654L82.047,22.006z"/>
	<path fill="#0C0010" d="M81.559-13.115c-3.008,1.38-5.91,3.023-8.893,4.287v20.947l2.318,2.443
		c2.382-0.579,4.707-1.102,7.063-1.654v-25.535L81.559-13.115z"/>
	<path fill="#91FF38" d="M72.666-22.006v13.178c2.982-1.264,5.885-2.907,8.893-4.287L72.666-22.006z"/>
	<path fill="#00B673" d="M106.334-22.006l-8.231,8.229c2.723,1.421,5.403,2.966,8.186,4.209L106.334-22.006z"/>
	<path fill="#140700" d="M106.209,12.119l0.079-21.688c-2.782-1.243-5.463-2.788-8.186-4.209l-1.151,1.151v24.08
		c1.797,1.648,3.568,3.43,5.373,4.815L106.209,12.119z"/>
	<path fill="#2E0061" d="M96.951,11.453v10.553l4.563-4.873c-0.003-0.046-0.015-0.085-0.015-0.133c0.047,0,0.093-0.001,0.14-0.001
		l0.685-0.73C100.52,14.883,98.748,13.102,96.951,11.453z"/>
	<path fill="#140700" d="M101.515,17.133l0.125-0.134c-0.047,0-0.093,0.001-0.14,0.001C101.5,17.048,101.512,17.087,101.515,17.133z
		"/>
	<polygon fill="#0C0400" points="89.5,5.973 96.951,-1.479 96.951,-12.614 89.5,-5.162 	"/>
	<polygon fill="#100A00" points="82.047,-12.614 82.047,-1.479 89.5,5.973 89.5,-5.162 	"/>
	<g>
		<polygon fill="#444444" points="8.166,37.119 8.166,2.994 17.547,12.374 17.547,47.006 		"/>
		<polygon fill="#444444" points="41.709,37.119 41.834,2.994 32.451,12.374 32.451,47.006 		"/>
		<polygon fill="#444444" points="32.451,12.387 25,19.839 25,30.973 32.451,23.521 		"/>
		<polygon fill="#444444" points="17.547,12.387 25,19.839 25,30.973 17.547,23.521 		"/>
	</g>
</g>
</svg>
